<svg width="46.000000" height="46.000000" viewBox="0 0 46 46" fill="none" xmlns="http://www.w3.org/2000/svg" xmlns:xlink="http://www.w3.org/1999/xlink">
	<desc>
			Created with Pixso.
	</desc>
	<defs>
		<clipPath id="clip1_271">
			<rect width="36.315788" height="36.315792" transform="translate(4.842102 7.263184)" fill="white" fill-opacity="0"/>
		</clipPath>
		<clipPath id="clip1_270">
			<rect width="46.000000" height="46.000000" fill="white" fill-opacity="0"/>
		</clipPath>
	</defs>
	<rect width="46.000000" height="46.000000" fill="#FFFFFF" fill-opacity="0"/>
	<g clip-path="url(#clip1_270)">
		<rect width="36.315788" height="36.315792" transform="translate(4.842102 7.263184)" fill="#FFFFFF" fill-opacity="0"/>
		<g clip-path="url(#clip1_271)">
			<path d="M27.68 37.72C28.65 37.72 29.44 36.93 29.44 35.96C29.44 34.99 28.65 34.2 27.68 34.2C26.92 34.2 26.27 34.69 26.03 35.37L23.58 35.37L23.58 31.86L26.03 31.86C26.27 32.54 26.92 33.03 27.68 33.03C28.65 33.03 29.44 32.24 29.44 31.27C29.44 30.3 28.65 29.52 27.68 29.52C26.92 29.52 26.27 30.01 26.03 30.69L23.58 30.69L23.58 27.17L26.03 27.17C26.27 27.85 26.92 28.34 27.68 28.34C28.65 28.34 29.44 27.56 29.44 26.59C29.44 25.62 28.65 24.83 27.68 24.83C26.92 24.83 26.27 25.32 26.03 26L23.58 26L23.58 24.83L22.41 24.83L22.41 22.38C23.09 22.14 23.58 21.49 23.58 20.73C23.58 19.76 22.79 18.97 21.82 18.97C20.85 18.97 20.07 19.76 20.07 20.73C20.07 21.49 20.56 22.14 21.24 22.38L21.24 24.83L17.72 24.83L17.72 22.38C18.4 22.14 18.89 21.49 18.89 20.73C18.89 19.76 18.11 18.97 17.14 18.97C16.17 18.97 15.38 19.76 15.38 20.73C15.38 21.49 15.87 22.14 16.55 22.38L16.55 24.83L13.04 24.83L13.04 22.38C13.72 22.14 14.21 21.49 14.21 20.73C14.21 19.76 13.42 18.97 12.45 18.97C11.48 18.97 10.69 19.76 10.69 20.73C10.69 21.49 11.19 22.14 11.87 22.38L11.87 24.83L10.69 24.83L10.69 26L8.24 26C8 25.32 7.36 24.83 6.59 24.83C5.63 24.83 4.84 25.62 4.84 26.59C4.84 27.56 5.63 28.34 6.59 28.34C7.36 28.34 8 27.85 8.24 27.17L10.69 27.17L10.69 30.69L8.24 30.69C8 30.01 7.36 29.52 6.59 29.52C5.63 29.52 4.84 30.3 4.84 31.27C4.84 32.24 5.63 33.03 6.59 33.03C7.36 33.03 8 32.54 8.24 31.86L10.69 31.86L10.69 35.37L8.24 35.37C8 34.69 7.36 34.2 6.59 34.2C5.63 34.2 4.84 34.99 4.84 35.96C4.84 36.93 5.63 37.72 6.59 37.72C7.36 37.72 8 37.23 8.24 36.55L10.69 36.55L10.69 37.72L11.87 37.72L11.87 40.17C11.19 40.41 10.69 41.05 10.69 41.82C10.69 42.79 11.48 43.57 12.45 43.57C13.42 43.57 14.21 42.79 14.21 41.82C14.21 41.05 13.72 40.41 13.04 40.17L13.04 37.72L16.55 37.72L16.55 40.17C15.87 40.41 15.38 41.05 15.38 41.82C15.38 42.79 16.17 43.57 17.14 43.57C18.11 43.57 18.89 42.79 18.89 41.82C18.89 41.05 18.4 40.41 17.72 40.17L17.72 37.72L21.24 37.72L21.24 40.17C20.56 40.41 20.07 41.05 20.07 41.82C20.07 42.79 20.85 43.57 21.82 43.57C22.79 43.57 23.58 42.79 23.58 41.82C23.58 41.05 23.09 40.41 22.41 40.17L22.41 37.72L23.58 37.72L23.58 36.55L26.03 36.55C26.27 37.23 26.92 37.72 27.68 37.72ZM27.68 35.37C28 35.37 28.27 35.64 28.27 35.96C28.27 36.28 28 36.55 27.68 36.55C27.36 36.55 27.1 36.28 27.1 35.96C27.1 35.64 27.36 35.37 27.68 35.37ZM27.68 30.69C28 30.69 28.27 30.95 28.27 31.27C28.27 31.6 28 31.86 27.68 31.86C27.36 31.86 27.1 31.6 27.1 31.27C27.1 30.95 27.36 30.69 27.68 30.69ZM27.68 26C28 26 28.27 26.26 28.27 26.59C28.27 26.91 28 27.17 27.68 27.17C27.36 27.17 27.1 26.91 27.1 26.59C27.1 26.26 27.36 26 27.68 26ZM6.59 27.17C6.27 27.17 6.01 26.91 6.01 26.59C6.01 26.26 6.27 26 6.59 26C6.92 26 7.18 26.26 7.18 26.59C7.18 26.91 6.92 27.17 6.59 27.17ZM6.59 31.86C6.27 31.86 6.01 31.6 6.01 31.27C6.01 30.95 6.27 30.69 6.59 30.69C6.92 30.69 7.18 30.95 7.18 31.27C7.18 31.6 6.92 31.86 6.59 31.86ZM6.59 36.55C6.27 36.55 6.01 36.28 6.01 35.96C6.01 35.64 6.27 35.37 6.59 35.37C6.92 35.37 7.18 35.64 7.18 35.96C7.18 36.28 6.92 36.55 6.59 36.55ZM21.82 20.14C22.15 20.14 22.41 20.41 22.41 20.73C22.41 21.05 22.15 21.32 21.82 21.32C21.5 21.32 21.24 21.05 21.24 20.73C21.24 20.41 21.5 20.14 21.82 20.14ZM17.14 20.14C17.46 20.14 17.72 20.41 17.72 20.73C17.72 21.05 17.46 21.32 17.14 21.32C16.81 21.32 16.55 21.05 16.55 20.73C16.55 20.41 16.81 20.14 17.14 20.14ZM12.45 20.14C12.78 20.14 13.04 20.41 13.04 20.73C13.04 21.05 12.78 21.32 12.45 21.32C12.13 21.32 11.87 21.05 11.87 20.73C11.87 20.41 12.13 20.14 12.45 20.14ZM12.45 42.4C12.13 42.4 11.87 42.14 11.87 41.82C11.87 41.49 12.13 41.23 12.45 41.23C12.78 41.23 13.04 41.49 13.04 41.82C13.04 42.14 12.78 42.4 12.45 42.4ZM17.14 42.4C16.81 42.4 16.55 42.14 16.55 41.82C16.55 41.49 16.81 41.23 17.14 41.23C17.46 41.23 17.72 41.49 17.72 41.82C17.72 42.14 17.46 42.4 17.14 42.4ZM21.82 42.4C21.5 42.4 21.24 42.14 21.24 41.82C21.24 41.49 21.5 41.23 21.82 41.23C22.15 41.23 22.41 41.49 22.41 41.82C22.41 42.14 22.15 42.4 21.82 42.4ZM22.41 36.55L11.87 36.55L11.87 26L22.41 26L22.41 36.55Z" fill="#FFFFFF" fill-opacity="1.000000" fill-rule="nonzero"/>
			<path d="M38.51 16.63L38.51 16.63C38.3 15.78 37.96 14.97 37.51 14.21L39.38 12.35L36.06 9.03L34.2 10.9C33.44 10.45 32.63 10.12 31.78 9.9L31.78 7.26L27.1 7.26L27.1 9.9C26.25 10.12 25.44 10.45 24.68 10.9L22.81 9.03L19.5 12.35L21.37 14.21C20.92 14.97 20.58 15.78 20.36 16.63L18.31 16.63L18.31 17.8L21.31 17.8L21.4 17.33C21.61 16.31 22.01 15.34 22.6 14.45L22.86 14.05L21.15 12.35L22.81 10.69L24.52 12.4L24.92 12.13C25.8 11.55 26.77 11.15 27.8 10.94L28.27 10.84L28.27 8.43L30.61 8.43L30.61 10.84L31.08 10.94C32.1 11.15 33.07 11.55 33.96 12.13L34.36 12.4L36.07 10.69L37.72 12.35L36.01 14.05L36.28 14.45C36.86 15.34 37.27 16.31 37.47 17.33L37.57 17.8L39.98 17.8L39.98 20.14L37.57 20.14L37.47 20.61C37.27 21.64 36.86 22.61 36.28 23.49L36.01 23.89L37.72 25.6L36.07 27.26L34.36 25.55L33.96 25.81C33.07 26.4 32.1 26.8 31.08 27.01L30.61 27.1L30.61 30.1L31.78 30.1L31.78 28.05C32.63 27.83 33.44 27.49 34.2 27.05L36.06 28.91L39.38 25.6L37.51 23.73C37.96 22.97 38.3 22.16 38.51 21.32L41.15 21.32L41.15 16.63L38.51 16.63Z" fill="#FFFFFF" fill-opacity="1.000000" fill-rule="nonzero"/>
			<path d="M29.44 23.66L29.44 24.83C32.67 24.83 35.3 22.2 35.3 18.97C35.3 15.74 32.67 13.12 29.44 13.12C26.21 13.12 23.58 15.74 23.58 18.97L24.75 18.97C24.75 16.39 26.85 14.29 29.44 14.29C32.02 14.29 34.12 16.39 34.12 18.97C34.12 21.56 32.02 23.66 29.44 23.66Z" fill="#FFFFFF" fill-opacity="1.000000" fill-rule="nonzero"/>
			<path d="M13.04 27.17L21.24 27.17L21.24 28.34L13.04 28.34L13.04 27.17Z" fill="#FFFFFF" fill-opacity="1.000000" fill-rule="evenodd"/>
			<path d="M20.07 34.2L21.24 34.2L21.24 35.37L20.07 35.37L20.07 34.2Z" fill="#FFFFFF" fill-opacity="1.000000" fill-rule="evenodd"/>
			<path d="M13.04 34.2L18.89 34.2L18.89 35.37L13.04 35.37L13.04 34.2Z" fill="#FFFFFF" fill-opacity="1.000000" fill-rule="evenodd"/>
			<path d="M26.39 42.06L26.63 43.21C33.78 41.76 39.34 36.2 40.79 29.05L39.64 28.81C38.28 35.5 33.08 40.7 26.39 42.06Z" fill="#FFFFFF" fill-opacity="1.000000" fill-rule="nonzero"/>
			<path d="M19.6 8.77L19.36 7.62C12.21 9.07 6.65 14.63 5.2 21.79L6.35 22.02C7.71 15.33 12.91 10.13 19.6 8.77Z" fill="#FFFFFF" fill-opacity="1.000000" fill-rule="nonzero"/>
		</g>
	</g>
</svg>
