<svg width="38.000000" height="38.000000" viewBox="0 0 38 38" fill="none" xmlns="http://www.w3.org/2000/svg" xmlns:xlink="http://www.w3.org/1999/xlink">
	<desc>
			Created with Pixso.
	</desc>
	<defs>
		<clipPath id="clip1_181">
			<rect width="38.000000" height="38.000000" fill="white" fill-opacity="0"/>
		</clipPath>
		<clipPath id="clip1_158">
			<rect width="38.000000" height="38.000000" fill="white" fill-opacity="0"/>
		</clipPath>
	</defs>
	<rect width="38.000000" height="38.000000" fill="#FFFFFF" fill-opacity="0"/>
	<g clip-path="url(#clip1_158)">
		<path d="M3.06 33.69L19 33.69L19 32.47L3.06 32.47C2.04 32.47 1.22 31.64 1.22 30.63L1.22 3.66C1.22 2.64 2.04 1.82 3.06 1.82L30.03 1.82C31.04 1.82 31.87 2.64 31.87 3.66L31.87 17.76L33.09 17.76L33.09 3.66C33.09 1.97 31.72 0.6 30.03 0.59L3.06 0.59C1.37 0.6 0 1.97 0 3.66L0 30.63C0 32.32 1.37 33.69 3.06 33.69Z" fill="#000000" fill-opacity="1.000000" fill-rule="nonzero"/>
		<path d="M2.45 3.05L3.67 3.05L3.67 4.27L2.45 4.27L2.45 3.05Z" fill="#000000" fill-opacity="1.000000" fill-rule="nonzero"/>
		<path d="M4.9 3.05L6.12 3.05L6.12 4.27L4.9 4.27L4.9 3.05Z" fill="#000000" fill-opacity="1.000000" fill-rule="nonzero"/>
		<path d="M7.35 3.05L8.58 3.05L8.58 4.27L7.35 4.27L7.35 3.05Z" fill="#000000" fill-opacity="1.000000" fill-rule="nonzero"/>
		<path d="M2.45 5.5L30.64 5.5L30.64 6.72L2.45 6.72L2.45 5.5Z" fill="#000000" fill-opacity="1.000000" fill-rule="nonzero"/>
		<path d="M8.76 8.13L7.2 9.69C5.88 8.81 4.12 9.08 3.12 10.3C2.12 11.53 2.21 13.31 3.33 14.42C4.44 15.54 6.22 15.63 7.45 14.63C8.67 13.63 8.94 11.87 8.06 10.55L9.62 9L8.76 8.13ZM5.51 14.08C4.5 14.08 3.67 13.26 3.67 12.24C3.67 11.22 4.5 10.4 5.51 10.4C5.78 10.4 6.05 10.47 6.3 10.59L5.08 11.81L5.94 12.67L7.17 11.45C7.29 11.7 7.35 11.97 7.35 12.24C7.35 13.26 6.53 14.08 5.51 14.08Z" fill="#000000" fill-opacity="1.000000" fill-rule="nonzero"/>
		<path d="M10.41 10.4L20.83 10.4L20.83 11.63L10.41 11.63L10.41 10.4Z" fill="#000000" fill-opacity="1.000000" fill-rule="nonzero"/>
		<path d="M10.41 12.85L14.7 12.85L14.7 14.08L10.41 14.08L10.41 12.85Z" fill="#000000" fill-opacity="1.000000" fill-rule="nonzero"/>
		<path d="M15.93 12.85L24.51 12.85L24.51 14.08L15.93 14.08L15.93 12.85Z" fill="#000000" fill-opacity="1.000000" fill-rule="nonzero"/>
		<path d="M22.06 10.4L28.19 10.4L28.19 11.63L22.06 11.63L22.06 10.4Z" fill="#000000" fill-opacity="1.000000" fill-rule="nonzero"/>
		<path d="M8.76 15.48L7.2 17.04C5.88 16.17 4.12 16.44 3.12 17.66C2.12 18.88 2.21 20.66 3.33 21.78C4.44 22.89 6.22 22.98 7.45 21.98C8.67 20.99 8.94 19.22 8.06 17.91L9.62 16.35L8.76 15.48ZM5.51 21.43C4.5 21.43 3.67 20.61 3.67 19.59C3.67 18.58 4.5 17.76 5.51 17.76C5.78 17.76 6.05 17.82 6.3 17.94L5.08 19.16L5.94 20.03L7.17 18.81C7.29 19.05 7.35 19.32 7.35 19.59C7.35 20.61 6.53 21.43 5.51 21.43Z" fill="#000000" fill-opacity="1.000000" fill-rule="nonzero"/>
		<path d="M10.41 17.76L20.83 17.76L20.83 18.98L10.41 18.98L10.41 17.76Z" fill="#000000" fill-opacity="1.000000" fill-rule="nonzero"/>
		<path d="M10.41 20.21L14.7 20.21L14.7 21.43L10.41 21.43L10.41 20.21Z" fill="#000000" fill-opacity="1.000000" fill-rule="nonzero"/>
		<path d="M15.93 20.21L20.83 20.21L20.83 21.43L15.93 21.43L15.93 20.21Z" fill="#000000" fill-opacity="1.000000" fill-rule="nonzero"/>
		<path d="M22.06 17.76L24.51 17.76L24.51 18.98L22.06 18.98L22.06 17.76Z" fill="#000000" fill-opacity="1.000000" fill-rule="nonzero"/>
		<path d="M8.76 22.84L7.2 24.4C5.88 23.52 4.12 23.79 3.12 25.01C2.12 26.24 2.21 28.02 3.33 29.13C4.44 30.25 6.22 30.34 7.45 29.34C8.67 28.34 8.94 26.58 8.06 25.26L9.62 23.71L8.76 22.84ZM5.51 28.79C4.5 28.79 3.67 27.97 3.67 26.95C3.67 25.93 4.5 25.11 5.51 25.11C5.78 25.11 6.05 25.17 6.3 25.29L5.08 26.52L5.94 27.38L7.17 26.16C7.29 26.41 7.35 26.68 7.35 26.95C7.35 27.97 6.53 28.79 5.51 28.79Z" fill="#000000" fill-opacity="1.000000" fill-rule="nonzero"/>
		<path d="M10.41 25.11L18.38 25.11L18.38 26.34L10.41 26.34L10.41 25.11Z" fill="#000000" fill-opacity="1.000000" fill-rule="nonzero"/>
		<path d="M10.41 27.56L14.7 27.56L14.7 28.79L10.41 28.79L10.41 27.56Z" fill="#000000" fill-opacity="1.000000" fill-rule="nonzero"/>
		<path d="M15.93 27.56L18.38 27.56L18.38 28.79L15.93 28.79L15.93 27.56Z" fill="#000000" fill-opacity="1.000000" fill-rule="nonzero"/>
		<path d="M28.8 37.37C33.88 37.37 37.99 33.25 37.99 28.18C37.99 23.1 33.88 18.98 28.8 18.98C23.72 18.98 19.61 23.1 19.61 28.18C19.61 33.25 23.73 37.36 28.8 37.37ZM28.8 20.21C33.2 20.21 36.77 23.78 36.77 28.18C36.77 32.58 33.2 36.14 28.8 36.14C24.4 36.14 20.83 32.58 20.83 28.18C20.84 23.78 24.4 20.21 28.8 20.21Z" fill="#000000" fill-opacity="1.000000" fill-rule="nonzero"/>
		<path d="M25.06 28.51L23.97 29.06L25.19 31.51C25.28 31.69 25.45 31.81 25.64 31.85C25.67 31.85 25.71 31.85 25.74 31.85C25.9 31.85 26.06 31.79 26.17 31.67L33.53 24.32L32.66 23.45L25.9 30.21L25.06 28.51Z" fill="#000000" fill-opacity="1.000000" fill-rule="nonzero"/>
		<rect width="38.000000" height="38.000000" fill="#FFFFFF" fill-opacity="0"/>
		<g clip-path="url(#clip1_181)">
			<path d="M3.06 33.69L19 33.69L19 32.47L3.06 32.47C2.04 32.47 1.22 31.64 1.22 30.63L1.22 3.66C1.22 2.64 2.04 1.82 3.06 1.82L30.03 1.82C31.04 1.82 31.87 2.64 31.87 3.66L31.87 17.76L33.09 17.76L33.09 3.66C33.09 1.97 31.72 0.6 30.03 0.59L3.06 0.59C1.37 0.6 0 1.97 0 3.66L0 30.63C0 32.32 1.37 33.69 3.06 33.69Z" fill="#FFFFFF" fill-opacity="1.000000" fill-rule="nonzero"/>
			<path d="M2.45 3.05L3.67 3.05L3.67 4.27L2.45 4.27L2.45 3.05Z" fill="#FFFFFF" fill-opacity="1.000000" fill-rule="nonzero"/>
			<path d="M4.9 3.05L6.12 3.05L6.12 4.27L4.9 4.27L4.9 3.05Z" fill="#FFFFFF" fill-opacity="1.000000" fill-rule="nonzero"/>
			<path d="M7.35 3.05L8.58 3.05L8.58 4.27L7.35 4.27L7.35 3.05Z" fill="#FFFFFF" fill-opacity="1.000000" fill-rule="nonzero"/>
			<path d="M2.45 5.5L30.64 5.5L30.64 6.72L2.45 6.72L2.45 5.5Z" fill="#FFFFFF" fill-opacity="1.000000" fill-rule="nonzero"/>
			<path d="M8.76 8.13L7.2 9.69C5.88 8.81 4.12 9.08 3.12 10.3C2.12 11.53 2.21 13.31 3.33 14.42C4.44 15.54 6.22 15.63 7.45 14.63C8.67 13.63 8.94 11.87 8.06 10.55L9.62 9L8.76 8.13ZM5.51 14.08C4.5 14.08 3.67 13.26 3.67 12.24C3.67 11.22 4.5 10.4 5.51 10.4C5.78 10.4 6.05 10.47 6.3 10.59L5.08 11.81L5.94 12.67L7.17 11.45C7.29 11.7 7.35 11.97 7.35 12.24C7.35 13.26 6.53 14.08 5.51 14.08Z" fill="#FFFFFF" fill-opacity="1.000000" fill-rule="nonzero"/>
			<path d="M10.41 10.4L20.83 10.4L20.83 11.63L10.41 11.63L10.41 10.4Z" fill="#FFFFFF" fill-opacity="1.000000" fill-rule="nonzero"/>
			<path d="M10.41 12.85L14.7 12.85L14.7 14.08L10.41 14.08L10.41 12.85Z" fill="#FFFFFF" fill-opacity="1.000000" fill-rule="nonzero"/>
			<path d="M15.93 12.85L24.51 12.85L24.51 14.08L15.93 14.08L15.93 12.85Z" fill="#FFFFFF" fill-opacity="1.000000" fill-rule="nonzero"/>
			<path d="M22.06 10.4L28.19 10.4L28.19 11.63L22.06 11.63L22.06 10.4Z" fill="#FFFFFF" fill-opacity="1.000000" fill-rule="nonzero"/>
			<path d="M8.76 15.48L7.2 17.04C5.88 16.17 4.12 16.44 3.12 17.66C2.12 18.88 2.21 20.66 3.33 21.78C4.44 22.89 6.22 22.98 7.45 21.98C8.67 20.99 8.94 19.22 8.06 17.91L9.62 16.35L8.76 15.48ZM5.51 21.43C4.5 21.43 3.67 20.61 3.67 19.59C3.67 18.58 4.5 17.76 5.51 17.76C5.78 17.76 6.05 17.82 6.3 17.94L5.08 19.16L5.94 20.03L7.17 18.81C7.29 19.05 7.35 19.32 7.35 19.59C7.35 20.61 6.53 21.43 5.51 21.43Z" fill="#FFFFFF" fill-opacity="1.000000" fill-rule="nonzero"/>
			<path d="M10.41 17.76L20.83 17.76L20.83 18.98L10.41 18.98L10.41 17.76Z" fill="#FFFFFF" fill-opacity="1.000000" fill-rule="nonzero"/>
			<path d="M10.41 20.21L14.7 20.21L14.7 21.43L10.41 21.43L10.41 20.21Z" fill="#FFFFFF" fill-opacity="1.000000" fill-rule="nonzero"/>
			<path d="M15.93 20.21L20.83 20.21L20.83 21.43L15.93 21.43L15.93 20.21Z" fill="#FFFFFF" fill-opacity="1.000000" fill-rule="nonzero"/>
			<path d="M22.06 17.76L24.51 17.76L24.51 18.98L22.06 18.98L22.06 17.76Z" fill="#FFFFFF" fill-opacity="1.000000" fill-rule="nonzero"/>
			<path d="M8.76 22.84L7.2 24.4C5.88 23.52 4.12 23.79 3.12 25.01C2.12 26.24 2.21 28.02 3.33 29.13C4.44 30.25 6.22 30.34 7.45 29.34C8.67 28.34 8.94 26.58 8.06 25.26L9.62 23.71L8.76 22.84ZM5.51 28.79C4.5 28.79 3.67 27.97 3.67 26.95C3.67 25.93 4.5 25.11 5.51 25.11C5.78 25.11 6.05 25.17 6.3 25.29L5.08 26.52L5.94 27.38L7.17 26.16C7.29 26.41 7.35 26.68 7.35 26.95C7.35 27.97 6.53 28.79 5.51 28.79Z" fill="#FFFFFF" fill-opacity="1.000000" fill-rule="nonzero"/>
			<path d="M10.41 25.11L18.38 25.11L18.38 26.34L10.41 26.34L10.41 25.11Z" fill="#FFFFFF" fill-opacity="1.000000" fill-rule="nonzero"/>
			<path d="M10.41 27.56L14.7 27.56L14.7 28.79L10.41 28.79L10.41 27.56Z" fill="#FFFFFF" fill-opacity="1.000000" fill-rule="nonzero"/>
			<path d="M15.93 27.56L18.38 27.56L18.38 28.79L15.93 28.79L15.93 27.56Z" fill="#FFFFFF" fill-opacity="1.000000" fill-rule="nonzero"/>
			<path d="M28.8 37.37C33.88 37.37 37.99 33.25 37.99 28.18C37.99 23.1 33.88 18.98 28.8 18.98C23.72 18.98 19.61 23.1 19.61 28.18C19.61 33.25 23.73 37.36 28.8 37.37ZM28.8 20.21C33.2 20.21 36.77 23.78 36.77 28.18C36.77 32.58 33.2 36.14 28.8 36.14C24.4 36.14 20.83 32.58 20.83 28.18C20.84 23.78 24.4 20.21 28.8 20.21Z" fill="#FFFFFF" fill-opacity="1.000000" fill-rule="nonzero"/>
			<path d="M25.06 28.51L23.97 29.06L25.19 31.51C25.28 31.69 25.45 31.81 25.64 31.85C25.67 31.85 25.71 31.85 25.74 31.85C25.9 31.85 26.06 31.79 26.17 31.67L33.53 24.32L32.66 23.45L25.9 30.21L25.06 28.51Z" fill="#FFFFFF" fill-opacity="1.000000" fill-rule="nonzero"/>
		</g>
	</g>
</svg>
