<svg width="42.000000" height="37.000000" viewBox="0 0 42 37" fill="none" xmlns="http://www.w3.org/2000/svg" xmlns:xlink="http://www.w3.org/1999/xlink">
	<desc>
			Created with Pixso.
	</desc>
	<defs>
		<clipPath id="clip1_135">
			<rect width="42.000000" height="37.000000" fill="white" fill-opacity="0"/>
		</clipPath>
	</defs>
	<rect width="42.000000" height="37.000000" fill="#FFFFFF" fill-opacity="0"/>
	<g clip-path="url(#clip1_135)">
		<path d="M34.82 0C31.62 0 29.09 2.69 29.09 6.05C29.09 9.41 31.66 12.06 34.82 12.06C37.98 12.06 40.59 9.37 40.59 6.01C40.59 2.65 38.02 0 34.82 0ZM34.82 10.73C32.33 10.73 30.31 8.62 30.31 6.01C30.31 3.4 32.37 1.32 34.82 1.32C37.31 1.32 39.33 3.44 39.33 6.05C39.33 8.66 37.31 10.73 34.82 10.73Z" fill="#FFFFFF" fill-opacity="1.000000" fill-rule="nonzero"/>
		<path d="M36.64 6.96C36.6 6.84 36.6 6.75 36.52 6.63C36.48 6.55 36.44 6.42 36.36 6.34C36.28 6.26 36.24 6.17 36.16 6.09C36.09 6.01 36.01 5.93 35.89 5.88C35.81 5.8 35.69 5.76 35.61 5.72C35.49 5.68 35.41 5.59 35.29 5.55C35.18 5.51 35.06 5.47 34.98 5.43C34.94 5.43 34.86 5.39 34.82 5.34C34.78 5.3 34.7 5.3 34.66 5.26C34.62 5.22 34.54 5.22 34.5 5.18C34.46 5.14 34.43 5.1 34.39 5.05C34.35 5.01 34.31 4.97 34.31 4.89C34.27 4.85 34.27 4.76 34.27 4.72C34.27 4.64 34.27 4.6 34.27 4.52C34.27 4.47 34.31 4.39 34.31 4.35C34.35 4.31 34.35 4.23 34.39 4.18C34.43 4.14 34.46 4.1 34.5 4.06C34.54 4.02 34.62 3.98 34.7 3.98C34.78 3.94 34.82 3.94 34.9 3.94C34.94 3.94 34.98 3.94 35.02 3.94C35.06 3.94 35.1 3.94 35.14 3.94C35.22 3.94 35.26 3.94 35.33 3.98C35.41 3.98 35.49 4.02 35.53 4.02C35.57 4.02 35.65 4.06 35.69 4.06C35.77 4.06 35.81 4.1 35.85 4.1L36.05 4.18L36.09 3.94L36.16 3.27L36.16 3.11L36.01 3.06C35.97 3.06 35.89 3.02 35.85 3.02C35.81 3.02 35.77 2.98 35.69 2.98C35.65 2.98 35.57 2.94 35.49 2.94C35.41 2.94 35.37 2.9 35.29 2.9L35.26 2.9L35.26 2.32L35.26 2.11L35.06 2.11L34.5 2.11L34.31 2.11L34.31 2.32L34.31 2.94L34.27 2.94C34.15 2.98 34.03 3.02 33.91 3.11C33.79 3.15 33.71 3.23 33.63 3.31C33.56 3.4 33.48 3.48 33.4 3.6C33.32 3.69 33.28 3.81 33.24 3.94C33.2 4.06 33.16 4.18 33.12 4.31C33.08 4.43 33.08 4.6 33.08 4.72C33.08 4.85 33.08 4.93 33.12 5.05C33.16 5.18 33.16 5.26 33.24 5.39C33.28 5.47 33.36 5.59 33.4 5.68C33.48 5.76 33.52 5.84 33.6 5.93C33.67 6.01 33.75 6.09 33.87 6.13C33.95 6.22 34.07 6.26 34.15 6.3C34.27 6.34 34.39 6.42 34.46 6.46C34.58 6.51 34.7 6.55 34.78 6.59C34.82 6.59 34.9 6.63 34.94 6.67C34.98 6.71 35.06 6.71 35.1 6.75C35.14 6.8 35.18 6.84 35.22 6.84C35.26 6.88 35.29 6.92 35.33 6.96C35.37 7 35.37 7.04 35.41 7.13C35.41 7.17 35.45 7.25 35.45 7.33C35.45 7.42 35.45 7.46 35.45 7.54C35.45 7.58 35.41 7.67 35.37 7.71C35.33 7.75 35.29 7.79 35.26 7.83C35.22 7.87 35.18 7.92 35.1 7.96C35.06 8 34.98 8 34.94 8.04C34.9 8.04 34.82 8.08 34.74 8.08C34.7 8.08 34.66 8.08 34.58 8.08C34.54 8.08 34.46 8.08 34.43 8.08C34.35 8.08 34.27 8.08 34.23 8.08C34.15 8.08 34.07 8.04 34.03 8.04C33.95 8.04 33.87 8 33.79 7.96C33.71 7.92 33.63 7.92 33.56 7.87C33.52 7.87 33.48 7.83 33.44 7.83C33.4 7.83 33.36 7.79 33.32 7.79L33.08 7.67L33.04 7.96L32.96 8.7L32.96 8.83L33.08 8.87C33.24 8.83 33.32 8.87 33.44 8.91C33.52 8.95 33.63 8.99 33.71 8.99C33.79 9.03 33.91 9.03 34.03 9.08C34.15 9.12 34.23 9.12 34.35 9.12L34.43 9.12L34.43 9.74L34.43 9.95L34.62 9.95L35.18 9.95L35.37 9.95L35.37 9.74L35.37 9.08L35.41 9.08C35.53 9.03 35.65 8.99 35.77 8.91C35.89 8.87 35.97 8.79 36.09 8.7C36.16 8.62 36.24 8.54 36.32 8.41C36.4 8.33 36.44 8.21 36.52 8.08C36.56 7.96 36.6 7.83 36.64 7.71C36.68 7.58 36.68 7.46 36.68 7.29C36.68 7.17 36.68 7.09 36.64 6.96Z" fill="#FFFFFF" fill-opacity="1.000000" fill-rule="nonzero"/>
		<path d="M32.05 12.85C31.86 12.56 31.42 12.52 31.14 12.72L24.74 18.07L16.48 14.47C16.28 14.38 16.04 14.42 15.89 14.55L7.03 21.18C6.75 21.39 6.68 21.8 6.87 22.09C6.99 22.3 7.19 22.38 7.39 22.38C7.51 22.38 7.62 22.34 7.74 22.26L16.32 15.83L24.62 19.44C24.82 19.52 25.1 19.48 25.25 19.36L31.93 13.8C32.21 13.59 32.25 13.14 32.05 12.85Z" fill="#FFFFFF" fill-opacity="1.000000" fill-rule="nonzero"/>
		<path d="M41.3 35.57L38.38 35.57L38.38 16.37C38.38 16 38.1 15.71 37.75 15.71L31.93 15.71C31.58 15.71 31.3 16 31.3 16.37L31.3 35.57L29.17 35.57L29.17 23.01C29.17 22.63 28.89 22.34 28.54 22.34L22.68 22.34C22.33 22.34 22.05 22.63 22.05 23.01L22.05 35.57L19.92 35.57L19.92 22.01C19.92 21.64 19.64 21.35 19.29 21.35L13.47 21.35C13.12 21.35 12.84 21.64 12.84 22.01L12.84 35.57L10.71 35.57L10.71 25.91C10.71 25.53 10.43 25.24 10.08 25.24L4.22 25.24C3.87 25.24 3.59 25.53 3.59 25.91L3.59 35.57L0.63 35.57C0.27 35.57 0 35.86 0 36.23C0 36.6 0.27 36.89 0.63 36.89L4.19 36.89L10 36.89L13.47 36.89L19.29 36.89L22.68 36.89L28.5 36.89L31.9 36.89L37.71 36.89L41.26 36.89C41.62 36.89 41.9 36.6 41.9 36.23C41.94 35.86 41.66 35.57 41.3 35.57ZM9.4 35.57L4.86 35.57L4.86 26.57L9.4 26.57L9.4 35.57ZM18.65 35.57L14.11 35.57L14.11 22.67L18.65 22.67L18.65 35.57ZM27.86 35.57L23.32 35.57L23.32 23.67L27.86 23.67L27.86 35.57ZM37.11 35.57L32.57 35.57L32.57 17.04L37.11 17.04L37.11 35.57Z" fill="#FFFFFF" fill-opacity="1.000000" fill-rule="nonzero"/>
	</g>
</svg>
