<svg width="38.000000" height="38.000000" viewBox="0 0 38 38" fill="none" xmlns="http://www.w3.org/2000/svg" xmlns:xlink="http://www.w3.org/1999/xlink">
	<desc>
			Created with Pixso.
	</desc>
	<defs>
		<clipPath id="clip1_216">
			<rect width="38.000000" height="38.000000" fill="white" fill-opacity="0"/>
		</clipPath>
	</defs>
	<rect width="38.000000" height="38.000000" fill="#FFFFFF" fill-opacity="0"/>
	<g clip-path="url(#clip1_216)">
		<path d="M21.48 6.72C19.67 4.84 17.25 3.81 14.68 3.81C12.11 3.81 9.69 4.84 7.87 6.72C4.12 10.6 4.12 16.9 7.87 20.77C9.69 22.65 12.11 23.68 14.68 23.68C17.25 23.68 19.67 22.65 21.48 20.77C23.3 18.9 24.3 16.4 24.3 13.75C24.3 11.09 23.3 8.6 21.48 6.72ZM8.65 7.52C10.26 5.86 12.4 4.94 14.68 4.94C16.95 4.94 19.1 5.86 20.71 7.52C21.98 8.83 22.8 10.49 23.09 12.28L20.1 15.3C19.82 15.13 19.49 15.04 19.14 15.04C18.47 15.04 17.87 15.4 17.52 15.94L13.13 14.51C13.13 14.5 13.13 14.49 13.13 14.48C13.13 13.36 12.25 12.46 11.18 12.46C10.1 12.46 9.22 13.36 9.22 14.48C9.22 14.84 9.32 15.18 9.48 15.47L7.18 17.94C5.43 14.6 5.92 10.34 8.65 7.52ZM20 17.06C20 17.54 19.62 17.94 19.14 17.94C18.67 17.94 18.29 17.54 18.29 17.06C18.29 16.57 18.67 16.17 19.14 16.17C19.62 16.17 20 16.57 20 17.06ZM12.03 14.48C12.03 14.96 11.65 15.36 11.18 15.36C10.7 15.36 10.32 14.96 10.32 14.48C10.32 13.99 10.7 13.59 11.18 13.59C11.65 13.59 12.03 13.99 12.03 14.48ZM20.71 19.97C19.1 21.64 16.96 22.55 14.68 22.55C12.4 22.55 10.26 21.64 8.65 19.97C8.33 19.64 8.04 19.29 7.78 18.93L10.27 16.26C10.54 16.41 10.85 16.49 11.18 16.49C11.85 16.49 12.45 16.14 12.8 15.59L17.19 17.02C17.19 17.03 17.19 17.04 17.19 17.06C17.19 18.17 18.07 19.07 19.14 19.07C20.22 19.07 21.1 18.17 21.1 17.06C21.1 16.71 21.01 16.39 20.87 16.11L23.21 13.75C23.21 16.1 22.32 18.31 20.71 19.97Z" fill="#FFFFFF" fill-opacity="1.000000" fill-rule="nonzero"/>
		<path d="M9.82 7.97L10.54 8.83C12.24 7.3 14.62 6.83 16.76 7.6L17.12 6.53C14.62 5.63 11.82 6.18 9.82 7.97Z" fill="#FFFFFF" fill-opacity="1.000000" fill-rule="nonzero"/>
		<path d="M18.53 7.22L17.96 8.19C18.25 8.37 18.53 8.58 18.79 8.81L19.5 7.95C19.2 7.68 18.87 7.43 18.53 7.22Z" fill="#FFFFFF" fill-opacity="1.000000" fill-rule="nonzero"/>
		<path d="M15.99 20.11C14.75 20.38 13.49 20.27 12.32 19.79L11.91 20.84C12.8 21.2 13.73 21.39 14.67 21.39C15.19 21.39 15.7 21.33 16.21 21.22L15.99 20.11Z" fill="#FFFFFF" fill-opacity="1.000000" fill-rule="nonzero"/>
		<path d="M28.41 22.84L27.61 23.66L25.64 21.48C27.98 17.95 28.54 13.54 27.33 9.59L28.89 8.01C29.17 8.16 29.48 8.25 29.82 8.25C30.89 8.25 31.77 7.34 31.77 6.23C31.77 5.9 31.69 5.59 31.56 5.32L34.92 1.92L34.92 3.68L36.02 3.68L36.02 0.01L32.47 0.01L32.47 1.14L34.12 1.14L30.81 4.49C30.52 4.32 30.18 4.22 29.82 4.22C28.74 4.22 27.86 5.12 27.86 6.23C27.86 6.59 27.95 6.92 28.11 7.21L26.91 8.43C26.26 6.84 25.32 5.35 24.06 4.06C18.89 -1.29 10.47 -1.29 5.29 4.06C0.68 8.82 0.17 16.24 3.78 21.58L2.86 22.56C2.58 22.42 2.28 22.33 1.95 22.33C0.87 22.33 0 23.24 0 24.35C0 25.46 0.87 26.37 1.95 26.37C3.03 26.37 3.9 25.46 3.9 24.35C3.9 23.99 3.81 23.64 3.64 23.35L4.45 22.49C4.71 22.81 4.99 23.13 5.29 23.44C7.88 26.11 11.28 27.45 14.68 27.45C17.29 27.45 19.9 26.66 22.14 25.08L24.12 27.27L23.3 28.12L32.88 37.98L38 32.7L28.41 22.84ZM29.82 5.35C30.29 5.35 30.67 5.74 30.67 6.23C30.67 6.72 30.29 7.12 29.82 7.12C29.34 7.12 28.96 6.72 28.96 6.23C28.96 5.74 29.34 5.35 29.82 5.35ZM1.95 25.23C1.48 25.23 1.09 24.84 1.09 24.35C1.09 23.86 1.48 23.46 1.95 23.46C2.42 23.46 2.81 23.86 2.81 24.35C2.81 24.84 2.42 25.23 1.95 25.23ZM6.06 22.64C1.32 17.74 1.32 9.76 6.06 4.86C8.44 2.41 11.56 1.18 14.68 1.18C17.8 1.18 20.92 2.41 23.29 4.86C28.04 9.76 28.04 17.74 23.29 22.64C18.54 27.54 10.81 27.54 6.06 22.64ZM23.02 24.4C23.38 24.1 23.73 23.78 24.06 23.44C24.39 23.11 24.69 22.76 24.97 22.4L26.84 24.46L24.89 26.47L23.02 24.4ZM32.88 36.38L24.85 28.12L28.41 24.44L36.44 32.7L32.88 36.38Z" fill="#FFFFFF" fill-opacity="1.000000" fill-rule="nonzero"/>
		<path d="M28.41 26.08L26.84 27.7L27.62 28.5L28.41 27.68L31.43 30.8L32.21 30L28.41 26.08Z" fill="#FFFFFF" fill-opacity="1.000000" fill-rule="nonzero"/>
		<path d="M32.38 31.77L33.15 30.97L33.96 31.81L33.19 32.61L32.38 31.77Z" fill="#FFFFFF" fill-opacity="1.000000" fill-rule="evenodd"/>
		<path d="M5.93 28.03L7.03 28.03L7.03 29.26L5.93 29.26L5.93 28.03Z" fill="#FFFFFF" fill-opacity="1.000000" fill-rule="evenodd"/>
		<path d="M5.93 34.94L7.03 34.94L7.03 36.17L5.93 36.17L5.93 34.94Z" fill="#FFFFFF" fill-opacity="1.000000" fill-rule="evenodd"/>
		<path d="M14.96 30.4L16.06 30.4L16.06 31.64L14.96 31.64L14.96 30.4Z" fill="#FFFFFF" fill-opacity="1.000000" fill-rule="evenodd"/>
		<path d="M30.67 20.23L31.77 20.23L31.77 21.46L30.67 21.46L30.67 20.23Z" fill="#FFFFFF" fill-opacity="1.000000" fill-rule="evenodd"/>
		<path d="M31.92 10.41L33.01 10.41L33.01 11.64L31.92 11.64L31.92 10.41Z" fill="#FFFFFF" fill-opacity="1.000000" fill-rule="evenodd"/>
		<path d="M35.55 15.61L36.65 15.61L36.65 16.84L35.55 16.84L35.55 15.61Z" fill="#FFFFFF" fill-opacity="1.000000" fill-rule="evenodd"/>
	</g>
</svg>
