<svg width="42.000000" height="42.000000" viewBox="0 0 42 42" fill="none" xmlns="http://www.w3.org/2000/svg" xmlns:xlink="http://www.w3.org/1999/xlink">
	<desc>
			Created with Pixso.
	</desc>
	<defs>
		<clipPath id="clip1_96">
			<rect width="42.000000" height="42.000000" fill="white" fill-opacity="0"/>
		</clipPath>
	</defs>
	<rect width="42.000000" height="42.000000" fill="#FFFFFF" fill-opacity="0"/>
	<g clip-path="url(#clip1_96)">
		<path d="M20.99 33.37C18.55 33.37 16.15 32.65 14.12 31.29C12.08 29.93 10.5 27.99 9.56 25.73C8.62 23.47 8.38 20.98 8.86 18.58C9.33 16.18 10.51 13.97 12.24 12.24C13.97 10.51 16.18 9.33 18.58 8.86C20.98 8.38 23.47 8.62 25.73 9.56C27.99 10.5 29.93 12.08 31.29 14.12C32.65 16.15 33.37 18.55 33.37 21C33.37 24.28 32.06 27.42 29.74 29.74C27.42 32.06 24.28 33.37 20.99 33.37ZM20.99 9.75C18.77 9.75 16.6 10.41 14.75 11.65C12.9 12.88 11.46 14.64 10.61 16.69C9.76 18.75 9.53 21.01 9.97 23.19C10.4 25.37 11.47 27.37 13.05 28.94C14.62 30.52 16.62 31.59 18.8 32.02C20.98 32.46 23.24 32.23 25.3 31.38C27.35 30.53 29.11 29.09 30.34 27.24C31.58 25.39 32.24 23.22 32.24 21C32.23 18.01 31.05 15.16 28.94 13.05C26.83 10.94 23.98 9.76 20.99 9.75Z" fill="#FFFFFF" fill-opacity="1.000000" fill-rule="nonzero"/>
		<path d="M21 30.44C19.13 30.44 17.3 29.89 15.75 28.85C14.19 27.81 12.98 26.34 12.27 24.61C11.55 22.88 11.37 20.98 11.73 19.15C12.1 17.32 13 15.64 14.32 14.32C15.64 13 17.32 12.1 19.15 11.73C20.98 11.37 22.88 11.55 24.61 12.27C26.33 12.98 27.81 14.2 28.85 15.75C29.89 17.3 30.44 19.13 30.44 21C30.44 23.5 29.44 25.9 27.67 27.67C25.9 29.44 23.5 30.44 21 30.44ZM21 12.69C19.35 12.69 17.75 13.17 16.38 14.09C15.01 15 13.95 16.3 13.32 17.82C12.69 19.33 12.52 21 12.85 22.62C13.17 24.23 13.96 25.71 15.12 26.87C16.28 28.03 17.76 28.82 19.37 29.14C20.99 29.47 22.66 29.3 24.17 28.67C25.69 28.04 26.99 26.98 27.9 25.61C28.82 24.24 29.3 22.64 29.3 21C29.3 18.79 28.43 16.68 26.87 15.12C25.31 13.56 23.2 12.69 21 12.69Z" fill="#FFFFFF" fill-opacity="1.000000" fill-rule="nonzero"/>
		<path d="M21.94 21.18L19.05 21.18C18.9 21.18 18.76 21.12 18.65 21.01C18.55 20.9 18.49 20.76 18.49 20.61L18.49 15.97C18.49 15.82 18.55 15.67 18.65 15.57C18.76 15.46 18.9 15.4 19.05 15.4L21.94 15.4C22.32 15.4 22.7 15.47 23.06 15.61C23.41 15.75 23.74 15.96 24.01 16.23C24.28 16.5 24.5 16.82 24.65 17.17C24.79 17.53 24.87 17.91 24.87 18.29C24.87 18.67 24.79 19.05 24.65 19.4C24.5 19.76 24.28 20.08 24.01 20.35C23.74 20.61 23.41 20.83 23.06 20.97C22.7 21.11 22.32 21.18 21.94 21.18ZM19.62 20.04L21.94 20.04C22.17 20.05 22.4 20 22.62 19.92C22.84 19.83 23.03 19.7 23.2 19.54C23.37 19.38 23.5 19.18 23.59 18.97C23.68 18.75 23.72 18.52 23.72 18.29C23.72 18.06 23.68 17.83 23.59 17.61C23.5 17.4 23.37 17.2 23.2 17.04C23.03 16.88 22.84 16.75 22.62 16.66C22.4 16.57 22.17 16.53 21.94 16.54L19.62 16.54L19.62 20.04Z" fill="#FFFFFF" fill-opacity="1.000000" fill-rule="nonzero"/>
		<path d="M22.68 25.82L19.05 25.82C18.9 25.82 18.76 25.76 18.65 25.65C18.55 25.55 18.49 25.4 18.49 25.25L18.49 20.61C18.49 20.46 18.55 20.31 18.65 20.21C18.76 20.1 18.9 20.04 19.05 20.04L22.68 20.04C23.44 20.04 24.18 20.35 24.72 20.89C25.26 21.43 25.57 22.16 25.57 22.93C25.57 23.7 25.26 24.43 24.72 24.97C24.18 25.51 23.44 25.82 22.68 25.82L22.68 25.82ZM19.62 24.68L22.68 24.68C23.14 24.68 23.59 24.5 23.92 24.17C24.25 23.84 24.43 23.4 24.43 22.93C24.43 22.47 24.25 22.02 23.92 21.69C23.59 21.36 23.14 21.18 22.68 21.18L19.62 21.18L19.62 24.68Z" fill="#FFFFFF" fill-opacity="1.000000" fill-rule="nonzero"/>
		<path d="M19.05 16.54L18.23 16.54C18.07 16.54 17.93 16.48 17.82 16.37C17.72 16.26 17.66 16.12 17.66 15.97C17.66 15.82 17.72 15.67 17.82 15.57C17.93 15.46 18.07 15.4 18.23 15.4L19.05 15.4C19.2 15.4 19.35 15.46 19.46 15.57C19.56 15.67 19.62 15.82 19.62 15.97C19.62 16.12 19.56 16.26 19.46 16.37C19.35 16.48 19.2 16.54 19.05 16.54Z" fill="#FFFFFF" fill-opacity="1.000000" fill-rule="nonzero"/>
		<path d="M19.52 16.54C19.37 16.54 19.22 16.48 19.12 16.37C19.01 16.26 18.95 16.12 18.95 15.97L18.95 14.92C18.95 14.77 19.01 14.63 19.12 14.52C19.22 14.42 19.37 14.36 19.52 14.36C19.67 14.36 19.81 14.42 19.92 14.52C20.03 14.63 20.09 14.77 20.09 14.92L20.09 15.97C20.09 16.12 20.03 16.26 19.92 16.37C19.81 16.48 19.67 16.54 19.52 16.54Z" fill="#FFFFFF" fill-opacity="1.000000" fill-rule="nonzero"/>
		<path d="M21.33 16.54C21.18 16.54 21.03 16.48 20.93 16.37C20.82 16.26 20.76 16.12 20.76 15.97L20.76 14.92C20.76 14.77 20.82 14.63 20.93 14.52C21.03 14.42 21.18 14.36 21.33 14.36C21.48 14.36 21.62 14.42 21.73 14.52C21.83 14.63 21.89 14.77 21.89 14.92L21.89 15.97C21.89 16.12 21.83 16.26 21.73 16.37C21.62 16.48 21.48 16.54 21.33 16.54Z" fill="#FFFFFF" fill-opacity="1.000000" fill-rule="nonzero"/>
		<path d="M19.52 26.86C19.37 26.86 19.22 26.8 19.12 26.69C19.01 26.59 18.95 26.44 18.95 26.29L18.95 25.25C18.95 25.1 19.01 24.96 19.12 24.85C19.22 24.74 19.37 24.68 19.52 24.68C19.67 24.68 19.81 24.74 19.92 24.85C20.03 24.96 20.09 25.1 20.09 25.25L20.09 26.3C20.09 26.45 20.03 26.59 19.92 26.7C19.81 26.8 19.67 26.86 19.52 26.86Z" fill="#FFFFFF" fill-opacity="1.000000" fill-rule="nonzero"/>
		<path d="M21.33 26.86C21.18 26.86 21.03 26.8 20.93 26.69C20.82 26.59 20.76 26.44 20.76 26.29L20.76 25.25C20.76 25.1 20.82 24.96 20.93 24.85C21.03 24.74 21.18 24.68 21.33 24.68C21.48 24.68 21.62 24.74 21.73 24.85C21.83 24.96 21.89 25.1 21.89 25.25L21.89 26.3C21.89 26.45 21.83 26.59 21.73 26.7C21.62 26.8 21.48 26.86 21.33 26.86Z" fill="#FFFFFF" fill-opacity="1.000000" fill-rule="nonzero"/>
		<path d="M19.05 25.82L18.23 25.82C18.07 25.82 17.93 25.76 17.82 25.65C17.72 25.55 17.66 25.4 17.66 25.25C17.66 25.1 17.72 24.96 17.82 24.85C17.93 24.74 18.07 24.68 18.23 24.68L19.05 24.68C19.2 24.68 19.35 24.74 19.46 24.85C19.56 24.96 19.62 25.1 19.62 25.25C19.62 25.4 19.56 25.55 19.46 25.65C19.35 25.76 19.2 25.82 19.05 25.82Z" fill="#FFFFFF" fill-opacity="1.000000" fill-rule="nonzero"/>
		<path d="M20.99 9.75C20.84 9.75 20.7 9.69 20.59 9.59C20.49 9.48 20.43 9.34 20.43 9.19L20.43 5.25C20.43 5.1 20.49 4.95 20.59 4.85C20.7 4.74 20.84 4.68 20.99 4.68C21.15 4.68 21.29 4.74 21.4 4.85C21.5 4.95 21.56 5.1 21.56 5.25L21.56 9.19C21.56 9.34 21.5 9.48 21.4 9.59C21.29 9.69 21.15 9.75 20.99 9.75Z" fill="#FFFFFF" fill-opacity="1.000000" fill-rule="nonzero"/>
		<path d="M20.99 5.82C20.53 5.82 20.08 5.68 19.69 5.42C19.31 5.16 19.01 4.8 18.83 4.37C18.65 3.94 18.61 3.47 18.7 3.02C18.79 2.56 19.01 2.14 19.34 1.82C19.67 1.49 20.08 1.27 20.54 1.18C20.99 1.08 21.46 1.13 21.89 1.31C22.32 1.49 22.69 1.79 22.94 2.17C23.2 2.56 23.34 3.01 23.34 3.47C23.34 4.09 23.09 4.69 22.65 5.13C22.21 5.57 21.62 5.82 20.99 5.82ZM20.99 2.27C20.76 2.27 20.52 2.34 20.32 2.47C20.12 2.6 19.97 2.79 19.88 3.01C19.79 3.23 19.76 3.47 19.81 3.71C19.86 3.94 19.97 4.16 20.14 4.33C20.31 4.5 20.52 4.61 20.76 4.66C20.99 4.7 21.24 4.68 21.46 4.59C21.68 4.5 21.87 4.34 22 4.14C22.13 3.95 22.2 3.71 22.2 3.47C22.2 3.15 22.07 2.85 21.85 2.62C21.62 2.39 21.31 2.27 20.99 2.27Z" fill="#FFFFFF" fill-opacity="1.000000" fill-rule="nonzero"/>
		<path d="M20.99 37.31C20.84 37.31 20.7 37.25 20.59 37.14C20.49 37.04 20.43 36.89 20.43 36.74L20.43 32.81C20.43 32.65 20.49 32.51 20.59 32.4C20.7 32.3 20.84 32.24 20.99 32.24C21.15 32.24 21.29 32.3 21.4 32.4C21.5 32.51 21.56 32.65 21.56 32.81L21.56 36.74C21.56 36.89 21.5 37.04 21.4 37.14C21.29 37.25 21.15 37.31 20.99 37.31Z" fill="#FFFFFF" fill-opacity="1.000000" fill-rule="nonzero"/>
		<path d="M20.99 40.86C20.53 40.86 20.08 40.72 19.69 40.47C19.31 40.21 19.01 39.84 18.83 39.41C18.65 38.99 18.61 38.51 18.7 38.06C18.79 37.61 19.01 37.19 19.34 36.86C19.67 36.53 20.08 36.31 20.54 36.22C20.99 36.13 21.46 36.18 21.89 36.35C22.32 36.53 22.69 36.83 22.94 37.22C23.2 37.6 23.34 38.05 23.34 38.52C23.34 39.14 23.09 39.73 22.65 40.17C22.21 40.61 21.62 40.86 20.99 40.86ZM20.99 37.31C20.76 37.31 20.52 37.38 20.32 37.51C20.12 37.65 19.97 37.83 19.88 38.05C19.79 38.28 19.76 38.52 19.81 38.75C19.86 38.99 19.97 39.2 20.14 39.37C20.31 39.54 20.52 39.65 20.76 39.7C20.99 39.75 21.24 39.72 21.46 39.63C21.68 39.54 21.87 39.39 22 39.19C22.13 38.99 22.2 38.76 22.2 38.52C22.2 38.2 22.07 37.89 21.85 37.66C21.62 37.44 21.31 37.31 20.99 37.31Z" fill="#FFFFFF" fill-opacity="1.000000" fill-rule="nonzero"/>
		<path d="M36.74 21.56L32.81 21.56C32.65 21.56 32.51 21.5 32.4 21.4C32.3 21.29 32.24 21.15 32.24 21C32.24 20.84 32.3 20.7 32.4 20.59C32.51 20.49 32.65 20.43 32.81 20.43L36.74 20.43C36.89 20.43 37.04 20.49 37.14 20.59C37.25 20.7 37.31 20.84 37.31 21C37.31 21.15 37.25 21.29 37.14 21.4C37.04 21.5 36.89 21.56 36.74 21.56Z" fill="#FFFFFF" fill-opacity="1.000000" fill-rule="nonzero"/>
		<path d="M38.52 23.34C38.05 23.34 37.6 23.2 37.21 22.94C36.83 22.69 36.53 22.32 36.35 21.89C36.17 21.46 36.13 20.99 36.22 20.54C36.31 20.08 36.53 19.67 36.86 19.34C37.19 19.01 37.6 18.79 38.06 18.7C38.51 18.61 38.98 18.65 39.41 18.83C39.84 19.01 40.21 19.31 40.46 19.69C40.72 20.08 40.86 20.53 40.86 20.99C40.86 21.62 40.61 22.21 40.17 22.65C39.73 23.09 39.14 23.34 38.52 23.34ZM38.52 19.79C38.28 19.79 38.04 19.86 37.85 19.99C37.65 20.12 37.49 20.31 37.4 20.53C37.31 20.75 37.29 21 37.33 21.23C37.38 21.46 37.49 21.68 37.66 21.85C37.83 22.02 38.05 22.13 38.28 22.18C38.52 22.23 38.76 22.2 38.98 22.11C39.2 22.02 39.39 21.86 39.52 21.67C39.65 21.47 39.72 21.23 39.72 20.99C39.72 20.67 39.6 20.37 39.37 20.14C39.14 19.91 38.84 19.79 38.52 19.79Z" fill="#FFFFFF" fill-opacity="1.000000" fill-rule="nonzero"/>
		<path d="M9.19 21.56L5.25 21.56C5.1 21.56 4.95 21.5 4.85 21.4C4.74 21.29 4.68 21.15 4.68 21C4.68 20.84 4.74 20.7 4.85 20.59C4.95 20.49 5.1 20.43 5.25 20.43L9.19 20.43C9.34 20.43 9.48 20.49 9.59 20.59C9.69 20.7 9.75 20.84 9.75 21C9.75 21.15 9.69 21.29 9.59 21.4C9.48 21.5 9.34 21.56 9.19 21.56Z" fill="#FFFFFF" fill-opacity="1.000000" fill-rule="nonzero"/>
		<path d="M3.47 23.34C3.01 23.34 2.56 23.2 2.17 22.94C1.79 22.69 1.49 22.32 1.31 21.89C1.13 21.46 1.08 20.99 1.18 20.54C1.27 20.08 1.49 19.67 1.82 19.34C2.14 19.01 2.56 18.79 3.02 18.7C3.47 18.61 3.94 18.65 4.37 18.83C4.8 19.01 5.16 19.31 5.42 19.69C5.68 20.08 5.82 20.53 5.82 20.99C5.82 21.62 5.57 22.21 5.13 22.65C4.69 23.09 4.09 23.34 3.47 23.34ZM3.47 19.79C3.23 19.79 3 19.86 2.8 19.99C2.6 20.12 2.45 20.31 2.36 20.53C2.27 20.75 2.24 21 2.29 21.23C2.33 21.46 2.45 21.68 2.62 21.85C2.79 22.02 3 22.13 3.24 22.18C3.47 22.23 3.71 22.2 3.94 22.11C4.16 22.02 4.34 21.86 4.48 21.67C4.61 21.47 4.68 21.23 4.68 20.99C4.68 20.67 4.55 20.37 4.33 20.14C4.1 19.91 3.79 19.79 3.47 19.79Z" fill="#FFFFFF" fill-opacity="1.000000" fill-rule="nonzero"/>
		<path d="M11.18 34.69L6.64 34.69C6.49 34.69 6.35 34.63 6.24 34.52C6.14 34.42 6.08 34.27 6.08 34.12C6.08 33.97 6.14 33.83 6.24 33.72C6.35 33.61 6.49 33.55 6.64 33.55L10.86 33.55L13.13 29.91C13.21 29.78 13.34 29.69 13.49 29.66C13.63 29.63 13.79 29.65 13.92 29.73C14.04 29.81 14.14 29.94 14.17 30.08C14.2 30.23 14.18 30.39 14.1 30.51L11.66 34.42C11.61 34.5 11.54 34.57 11.45 34.62C11.37 34.67 11.27 34.69 11.18 34.69Z" fill="#FFFFFF" fill-opacity="1.000000" fill-rule="nonzero"/>
		<path d="M4.87 36.46C4.41 36.46 3.95 36.33 3.57 36.07C3.18 35.81 2.88 35.45 2.71 35.02C2.53 34.59 2.48 34.12 2.57 33.66C2.66 33.21 2.89 32.79 3.21 32.46C3.54 32.14 3.96 31.91 4.41 31.82C4.87 31.73 5.34 31.78 5.77 31.96C6.2 32.13 6.56 32.43 6.82 32.82C7.08 33.21 7.21 33.66 7.21 34.12C7.21 34.74 6.97 35.34 6.53 35.78C6.09 36.22 5.49 36.46 4.87 36.46ZM4.87 32.91C4.63 32.91 4.4 32.98 4.2 33.12C4 33.25 3.85 33.44 3.75 33.66C3.66 33.88 3.64 34.12 3.69 34.36C3.73 34.59 3.85 34.81 4.02 34.98C4.19 35.14 4.4 35.26 4.64 35.31C4.87 35.35 5.11 35.33 5.33 35.24C5.55 35.15 5.74 34.99 5.87 34.79C6.01 34.59 6.08 34.36 6.08 34.12C6.08 33.8 5.95 33.49 5.72 33.27C5.5 33.04 5.19 32.91 4.87 32.91Z" fill="#FFFFFF" fill-opacity="1.000000" fill-rule="nonzero"/>
		<path d="M13.62 12.34C13.52 12.34 13.43 12.32 13.34 12.27C13.26 12.23 13.19 12.16 13.13 12.08L10.86 8.44L6.64 8.44C6.49 8.44 6.35 8.38 6.24 8.27C6.14 8.16 6.08 8.02 6.08 7.87C6.08 7.72 6.14 7.57 6.24 7.47C6.35 7.36 6.49 7.3 6.64 7.3L11.18 7.3C11.27 7.3 11.37 7.33 11.45 7.37C11.54 7.42 11.61 7.49 11.66 7.57L14.09 11.48C14.15 11.56 14.18 11.66 14.18 11.76C14.18 11.86 14.16 11.96 14.11 12.05C14.06 12.14 13.99 12.21 13.9 12.26C13.82 12.32 13.72 12.34 13.62 12.34Z" fill="#FFFFFF" fill-opacity="1.000000" fill-rule="nonzero"/>
		<path d="M4.87 10.21C4.41 10.21 3.95 10.07 3.57 9.82C3.18 9.56 2.88 9.19 2.71 8.76C2.53 8.34 2.48 7.87 2.57 7.41C2.66 6.96 2.89 6.54 3.21 6.21C3.54 5.88 3.96 5.66 4.41 5.57C4.87 5.48 5.34 5.53 5.77 5.7C6.2 5.88 6.56 6.18 6.82 6.57C7.08 6.95 7.21 7.4 7.21 7.87C7.21 8.49 6.97 9.09 6.53 9.52C6.09 9.96 5.49 10.21 4.87 10.21ZM4.87 6.66C4.63 6.66 4.4 6.73 4.2 6.86C4 7 3.85 7.19 3.75 7.41C3.66 7.63 3.64 7.87 3.69 8.1C3.73 8.34 3.85 8.55 4.02 8.72C4.19 8.89 4.4 9.01 4.64 9.05C4.87 9.1 5.11 9.08 5.33 8.98C5.55 8.89 5.74 8.74 5.87 8.54C6.01 8.34 6.08 8.11 6.08 7.87C6.08 7.55 5.95 7.24 5.72 7.01C5.5 6.79 5.19 6.66 4.87 6.66Z" fill="#FFFFFF" fill-opacity="1.000000" fill-rule="nonzero"/>
		<path d="M35.35 34.69L30.81 34.69C30.72 34.69 30.62 34.66 30.54 34.62C30.45 34.57 30.38 34.5 30.33 34.42L27.89 30.51C27.81 30.39 27.79 30.23 27.82 30.08C27.86 29.94 27.95 29.81 28.08 29.73C28.2 29.65 28.36 29.63 28.5 29.66C28.65 29.69 28.78 29.78 28.86 29.91L31.13 33.55L35.35 33.55C35.5 33.55 35.64 33.61 35.75 33.72C35.86 33.83 35.91 33.97 35.91 34.12C35.91 34.27 35.86 34.42 35.75 34.52C35.64 34.63 35.5 34.69 35.35 34.69L35.35 34.69Z" fill="#FFFFFF" fill-opacity="1.000000" fill-rule="nonzero"/>
		<path d="M37.12 36.46C36.66 36.46 36.2 36.33 35.82 36.07C35.43 35.81 35.13 35.45 34.96 35.02C34.78 34.59 34.73 34.12 34.82 33.66C34.91 33.21 35.14 32.79 35.46 32.47C35.79 32.14 36.21 31.91 36.66 31.82C37.12 31.73 37.59 31.78 38.02 31.96C38.44 32.13 38.81 32.43 39.07 32.82C39.33 33.21 39.46 33.66 39.46 34.12C39.46 34.74 39.22 35.34 38.78 35.78C38.34 36.22 37.74 36.46 37.12 36.46ZM37.12 32.91C36.88 32.91 36.65 32.98 36.45 33.12C36.25 33.25 36.1 33.44 36 33.66C35.91 33.88 35.89 34.12 35.94 34.36C35.98 34.59 36.1 34.81 36.27 34.98C36.43 35.14 36.65 35.26 36.88 35.31C37.12 35.35 37.36 35.33 37.58 35.24C37.8 35.15 37.99 34.99 38.12 34.79C38.26 34.59 38.33 34.36 38.33 34.12C38.33 33.8 38.2 33.49 37.97 33.27C37.75 33.04 37.44 32.91 37.12 32.91Z" fill="#FFFFFF" fill-opacity="1.000000" fill-rule="nonzero"/>
		<path d="M28.37 12.34C28.27 12.34 28.17 12.32 28.09 12.27C28 12.21 27.93 12.14 27.88 12.05C27.83 11.96 27.8 11.86 27.81 11.76C27.81 11.66 27.84 11.56 27.89 11.48L30.33 7.57C30.38 7.49 30.45 7.42 30.53 7.37C30.62 7.33 30.71 7.3 30.81 7.3L35.34 7.3C35.49 7.3 35.64 7.36 35.75 7.47C35.85 7.57 35.91 7.72 35.91 7.87C35.91 8.02 35.85 8.16 35.75 8.27C35.64 8.38 35.49 8.44 35.34 8.44L31.13 8.44L28.86 12.08C28.81 12.16 28.73 12.23 28.65 12.27C28.57 12.32 28.47 12.35 28.37 12.34Z" fill="#FFFFFF" fill-opacity="1.000000" fill-rule="nonzero"/>
		<path d="M37.12 10.21C36.66 10.21 36.2 10.07 35.82 9.82C35.43 9.56 35.13 9.19 34.96 8.76C34.78 8.34 34.73 7.87 34.82 7.41C34.91 6.96 35.14 6.54 35.46 6.21C35.79 5.88 36.21 5.66 36.66 5.57C37.12 5.48 37.59 5.53 38.02 5.7C38.44 5.88 38.81 6.18 39.07 6.57C39.33 6.95 39.46 7.4 39.46 7.87C39.46 8.49 39.21 9.08 38.78 9.52C38.34 9.96 37.74 10.21 37.12 10.21ZM37.12 6.66C36.88 6.66 36.65 6.73 36.45 6.86C36.25 7 36.1 7.19 36 7.41C35.91 7.63 35.89 7.87 35.94 8.1C35.98 8.34 36.1 8.55 36.27 8.72C36.43 8.89 36.65 9.01 36.88 9.05C37.12 9.1 37.36 9.08 37.58 8.98C37.8 8.89 37.99 8.74 38.12 8.54C38.26 8.34 38.33 8.11 38.33 7.87C38.33 7.55 38.2 7.24 37.97 7.01C37.75 6.79 37.44 6.66 37.12 6.66Z" fill="#FFFFFF" fill-opacity="1.000000" fill-rule="nonzero"/>
	</g>
</svg>
