<svg width="38.000000" height="38.000000" viewBox="0 0 38 38" fill="none" xmlns="http://www.w3.org/2000/svg" xmlns:xlink="http://www.w3.org/1999/xlink">
	<desc>
			Created with Pixso.
	</desc>
	<defs>
		<clipPath id="clip1_248">
			<rect width="38.000000" height="38.000000" fill="white" fill-opacity="0"/>
		</clipPath>
	</defs>
	<rect width="38.000000" height="38.000000" fill="#FFFFFF" fill-opacity="0"/>
	<g clip-path="url(#clip1_248)">
		<path d="M37.24 34.65L4.53 34.65L8.66 30.04C9.02 30.24 9.44 30.35 9.87 30.35C10.88 30.35 11.76 29.77 12.19 28.92L16.41 29.99C16.52 31.33 17.64 32.38 19 32.38C20.43 32.38 21.59 31.21 21.59 29.77C21.59 28.98 21.24 28.27 20.68 27.79L24.12 19.54L26.57 25.8C25.98 26.28 25.61 27.01 25.61 27.83C25.61 29.27 26.78 30.44 28.21 30.44C29.64 30.44 30.81 29.27 30.81 27.83C30.81 27.53 30.76 27.25 30.67 26.99L33.67 23.97C33.97 23.68 33.97 23.19 33.67 22.9C33.38 22.6 32.9 22.6 32.6 22.9L29.77 25.74C29.33 25.41 28.79 25.22 28.21 25.22C28.13 25.22 28.05 25.22 27.97 25.23L24.96 17.52L27.98 10.26C28.06 10.27 28.13 10.27 28.21 10.27C29.41 10.27 30.43 9.45 30.72 8.33L35.49 8.33C35.91 8.33 36.24 7.99 36.24 7.57C36.24 7.15 35.91 6.81 35.49 6.81L30.67 6.81C30.31 5.79 29.34 5.05 28.21 5.05C26.78 5.05 25.61 6.22 25.61 7.66C25.61 8.48 25.99 9.22 26.58 9.7L24.17 15.49L20.64 6.46C21.17 5.98 21.5 5.29 21.5 4.52C21.5 3.08 20.34 1.91 18.9 1.91C17.47 1.91 16.3 3.08 16.3 4.52C16.3 5.14 16.52 5.71 16.89 6.16L10.65 15.65C10.37 15.56 10.08 15.51 9.78 15.51C9.47 15.51 9.17 15.56 8.9 15.66L3.54 8.58L3.54 0.82C3.54 0.4 3.2 0.06 2.78 0.06C2.36 0.06 2.02 0.4 2.02 0.82L2.02 8.29L0.75 8.29C0.33 8.29 0 8.63 0 9.05C0 9.47 0.33 9.81 0.75 9.81L2.02 9.81L2.02 17.45L0.75 17.45C0.33 17.45 0 17.79 0 18.21C0 18.63 0.33 18.97 0.75 18.97L2.02 18.97L2.02 26.79L0.75 26.79C0.33 26.79 0 27.13 0 27.55C0 27.97 0.33 28.31 0.75 28.31L2.02 28.31L2.02 35.41C2.02 35.83 2.36 36.17 2.78 36.17L9.3 36.17L9.3 37.17C9.3 37.59 9.64 37.93 10.06 37.93C10.48 37.93 10.81 37.59 10.81 37.17L10.81 36.17L18.42 36.17L18.42 37.17C18.42 37.59 18.76 37.93 19.18 37.93C19.6 37.93 19.94 37.59 19.94 37.17L19.94 36.17L27.73 36.17L27.73 37.17C27.73 37.59 28.07 37.93 28.48 37.93C28.9 37.93 29.24 37.59 29.24 37.17L29.24 36.17L37.24 36.17C37.66 36.17 37.99 35.83 37.99 35.41C37.99 34.99 37.66 34.65 37.24 34.65ZM28.21 26.74C28.81 26.74 29.29 27.23 29.29 27.83C29.29 28.43 28.81 28.92 28.21 28.92C27.61 28.92 27.12 28.43 27.12 27.83C27.12 27.23 27.61 26.74 28.21 26.74ZM28.21 6.57C28.81 6.57 29.29 7.06 29.29 7.66C29.29 8.27 28.81 8.75 28.21 8.75C27.61 8.75 27.12 8.27 27.12 7.66C27.12 7.06 27.61 6.57 28.21 6.57ZM9.87 28.83C9.27 28.83 8.79 28.34 8.79 27.74C8.79 27.13 9.27 26.65 9.87 26.65C10.47 26.65 10.96 27.13 10.96 27.74C10.96 28.34 10.47 28.83 9.87 28.83ZM19 30.86C18.4 30.86 17.91 30.37 17.91 29.77C17.91 29.17 18.4 28.68 19 28.68C19.59 28.68 20.08 29.17 20.08 29.77C20.08 30.37 19.59 30.86 19 30.86ZM18.9 3.43C19.5 3.43 19.99 3.92 19.99 4.52C19.99 5.12 19.5 5.61 18.9 5.61C18.3 5.61 17.82 5.12 17.82 4.52C17.82 3.92 18.3 3.43 18.9 3.43ZM9.78 17.03C10.38 17.03 10.87 17.52 10.87 18.12C10.87 18.72 10.38 19.21 9.78 19.21C9.18 19.21 8.7 18.72 8.7 18.12C8.7 17.52 9.18 17.03 9.78 17.03ZM3.54 11.09L7.69 16.57C7.37 17.01 7.18 17.54 7.18 18.12C7.18 19.56 8.35 20.73 9.78 20.73C11.21 20.73 12.38 19.56 12.38 18.12C12.38 17.53 12.19 16.99 11.87 16.56L18.14 7.01C18.38 7.09 18.64 7.13 18.9 7.13C19.03 7.13 19.15 7.12 19.26 7.1L23.33 17.5L19.29 27.18C19.2 27.17 19.1 27.16 18.99 27.16C18.02 27.16 17.17 27.7 16.72 28.5L12.45 27.42C12.3 26.13 11.2 25.13 9.87 25.13C8.44 25.13 7.27 26.3 7.27 27.74C7.27 28.18 7.39 28.6 7.58 28.97L3.54 33.49L3.54 11.09Z" fill="#FFFFFF" fill-opacity="1.000000" fill-rule="nonzero"/>
		<path d="M36.25 20.22C35.96 19.92 35.48 19.92 35.18 20.22L34.58 20.82C34.29 21.11 34.29 21.59 34.58 21.89C34.73 22.04 34.93 22.11 35.12 22.11C35.31 22.11 35.51 22.04 35.65 21.89L36.25 21.29C36.55 20.99 36.55 20.51 36.25 20.22Z" fill="#FFFFFF" fill-opacity="1.000000" fill-rule="nonzero"/>
	</g>
</svg>
