<svg width="18.000000" height="18.000000" viewBox="0 0 18 18" fill="none" xmlns="http://www.w3.org/2000/svg" xmlns:xlink="http://www.w3.org/1999/xlink">
	<desc>
			Created with Pixso.
	</desc>
	<defs>
		<clipPath id="clip1_321">
			<rect id="twitter 1" width="18.000000" height="18.000000" fill="white" fill-opacity="0"/>
		</clipPath>
	</defs>
	<rect id="twitter 1" width="18.000000" height="18.000000" fill="#FFFFFF" fill-opacity="0"/>
	<g clip-path="url(#clip1_321)">
		<path id="Vector" d="M0 9C0 4.02 4.02 0 9 0C13.97 0 18 4.02 18 9C18 13.97 13.97 18 9 18C4.02 18 0 13.97 0 9Z" fill="#3FA4F1" fill-opacity="1.000000" fill-rule="nonzero"/>
		<path id="Vector" d="M8.73 7.31L8.74 7.62L8.43 7.58C7.28 7.44 6.28 6.94 5.43 6.11L5.02 5.7L4.91 6C4.68 6.68 4.83 7.4 5.3 7.88C5.55 8.15 5.5 8.19 5.06 8.03C4.91 7.98 4.78 7.94 4.77 7.96C4.72 8 4.87 8.58 4.99 8.81C5.16 9.13 5.49 9.44 5.85 9.62L6.16 9.77L5.8 9.78C5.45 9.78 5.43 9.78 5.47 9.92C5.6 10.33 6.09 10.77 6.65 10.96L7.04 11.09L6.7 11.3C6.18 11.59 5.6 11.75 5.01 11.77C4.73 11.77 4.5 11.8 4.5 11.82C4.5 11.88 5.26 12.24 5.71 12.38C7.05 12.79 8.64 12.61 9.84 11.91C10.69 11.4 11.54 10.41 11.94 9.44C12.15 8.92 12.36 7.98 12.36 7.53C12.36 7.24 12.38 7.2 12.74 6.85C12.94 6.65 13.14 6.43 13.18 6.36C13.24 6.24 13.23 6.24 12.91 6.35C12.38 6.54 12.3 6.52 12.57 6.23C12.76 6.03 12.99 5.66 12.99 5.55C12.99 5.53 12.9 5.56 12.79 5.62C12.68 5.68 12.43 5.78 12.24 5.84L11.9 5.94L11.59 5.73C11.42 5.62 11.18 5.49 11.05 5.45C10.73 5.37 10.24 5.38 9.95 5.48C9.17 5.77 8.67 6.5 8.73 7.31L8.73 7.31Z" fill="#FFFFFF" fill-opacity="1.000000" fill-rule="nonzero"/>
	</g>
</svg>
